<svg width="48" height="48" fill="none" xmlns="http://www.w3.org/2000/svg">
  <path d="M24 25.5c3.26 0 6.14.78 8.48 1.8 2.16.96 3.52 3.12 3.52 5.46V36H12v-3.22c0-2.36 1.36-4.52 3.52-5.46A20.88 20.88 0 0 1 24 25.5ZM8 26c2.2 0 4-1.8 4-4s-1.8-4-4-4-4 1.8-4 4 1.8 4 4 4Zm2.26 2.2C9.52 28.08 8.78 28 8 28c-1.98 0-3.86.42-5.56 1.16A4.022 4.022 0 0 0 0 32.86V36h9v-3.22c0-1.66.46-3.22 1.26-4.58ZM40 26c2.2 0 4-1.8 4-4s-1.8-4-4-4-4 1.8-4 4 1.8 4 4 4Zm8 6.86c0-1.62-.96-3.06-2.44-3.7C43.86 28.42 41.98 28 40 28c-.78 0-1.52.08-2.26.2.8 1.36 1.26 2.92 1.26 4.58V36h9v-3.14ZM24 12c3.32 0 6 2.68 6 6s-2.68 6-6 6-6-2.68-6-6 2.68-6 6-6Z" fill="#fff"/>
</svg>
