<svg width="965" height="857" fill="none" xmlns="http://www.w3.org/2000/svg">
  <g opacity=".1" fill="#243746">
    <path d="M408.961 491.293s266.237 318.058 136.336 485.448C415.396 1144.13 436.228 1115.99 436.228 1115.99S391.51 1180 316.907 1180h-460.052l552.106-688.707Z"/>
    <path d="M476.037 458.21c48.684 60.278 90.282 124.245 124.23 191.033 31.802 59.931 51.795 123.661 59.224 188.786l287.832-358.513c10.189-11.029 16.255-24.268 17.456-38.095 1.201-13.827-2.515-27.643-10.693-39.757a69.552 69.552 0 0 0-6.981-8.989l-501.716-624.7c-7.744-9.889-9.925-12.586-10.143-12.766a113.411 113.411 0 0 0-6.217-7.641C413.323-270.412 373.949-307 317.233-307H-145l621.037 765.21Z"/>
  </g>
</svg>
