<svg width="543" height="725" viewBox="0 0 543 725" fill="none" xmlns="http://www.w3.org/2000/svg">
<g opacity="0.1">
<path d="M270.992 335.661C270.992 335.661 401.232 180.646 337.686 99.0641C274.14 17.4819 284.331 31.1958 284.331 31.1958C284.331 31.1958 262.455 0 225.96 0H0.907656L270.992 335.661Z" fill="#243746"/>
<path d="M303.805 351.785C327.62 322.407 347.97 291.23 364.576 258.679C380.134 229.47 389.914 198.41 393.548 166.669L534.353 341.401C539.337 346.776 542.304 353.228 542.892 359.968C543.479 366.707 541.662 373.44 537.661 379.344C536.661 380.874 535.519 382.339 534.246 383.725L288.812 688.191C285.024 693.01 283.957 694.325 283.85 694.412C283.263 695.201 282.249 696.516 280.809 698.137C273.126 706.899 253.864 724.732 226.12 724.732H0L303.805 351.785Z" fill="#243746"/>
</g>
</svg>
