<svg xmlns="http://www.w3.org/2000/svg" viewBox="0 0 460.002 460.002" style="enable-background:new 0 0 460.002 460.002" xml:space="preserve">
  <path d="M427.137 0H32.865C14.743 0 0 14.743 0 32.865v408.543c0 10.253 8.341 18.594 18.594 18.594h408.543c18.122 0 32.865-14.743 32.865-32.865V32.865C460.002 14.743 445.259 0 427.137 0zM139.001 56.001c39.149 0 71 31.851 71 71s-31.851 71-71 71-71-31.851-71-71 31.851-71 71-71zM405.24 393.215a15.001 15.001 0 0 1-13.151 7.786H67.913a15 15 0 0 1-12.65-23.061l77.092-120.984a15 15 0 0 1 25.3 0l37.029 58.111 72.346-113.536a15 15 0 0 1 25.3 0L404.739 377.94a15 15 0 0 1 .501 15.275z" fill="red"/>
</svg>
