<svg width="172" height="82" fill="none" xmlns="http://www.w3.org/2000/svg"><g clip-path="url(#a)"><path d="m62.7 50.3-5.8-8-2.17 2.25v5.73H50.6V31.56h4.12v8.2l7.62-8.2h4.96l-7.62 7.93 7.97 10.8h-4.96ZM80.18 50.3l-4.03-6.02H72.9v6H68.8V31.56h8.56c4.41 0 7.06 2.33 7.06 6.18v.06a5.81 5.81 0 0 1-4.01 5.8l4.57 6.7h-4.79Zm.08-12.34c0-1.77-1.23-2.68-3.23-2.68h-4.1v5.38h4.18c2 0 3.15-1.07 3.15-2.65v-.05ZM86.8 50.3V31.56h14.12v3.67H90.9v3.8h8.83v3.67h-8.83v3.93h10.16v3.67H86.8ZM110.04 50.56c-2.92.01-5.74-1.06-7.93-3l2.44-2.91c1.69 1.4 3.47 2.28 5.6 2.28 1.68 0 2.7-.67 2.7-1.77v-.05c0-1.05-.65-1.59-3.78-2.39-3.77-.96-6.2-2-6.2-5.73v-.05c0-3.4 2.72-5.65 6.55-5.65 2.52-.03 4.97.8 6.94 2.39l-2.14 3.1c-1.66-1.15-3.3-1.85-4.88-1.85s-2.4.73-2.4 1.64v.05c0 1.23.8 1.63 4.04 2.48 3.8.99 5.95 2.35 5.95 5.62v.06c-.01 3.7-2.85 5.78-6.89 5.78ZM127.26 35.36v14.93h-4.12V35.36h-5.7v-3.8h15.52v3.8h-5.7ZM143.05 50.62c-5.78 0-9.91-4.31-9.91-9.64v-.05c0-5.33 4.2-9.7 9.98-9.7 5.77 0 9.9 4.32 9.9 9.65v.05c0 5.34-4.2 9.69-9.97 9.69Zm5.67-9.69c0-3.21-2.35-5.89-5.67-5.89s-5.61 2.62-5.61 5.84v.05c0 3.2 2.35 5.89 5.66 5.89 3.32 0 5.63-2.63 5.63-5.84v-.05ZM168.5 50.3l-9.08-11.9v11.9h-4.06V31.56h3.8l8.77 11.54V31.56H172V50.3h-3.5ZM25.25 37.99s-12.1-17.55-6.2-26.78c5.91-9.23 4.96-7.68 4.96-7.68S26.05 0 29.43 0h20.9L25.26 37.99Z" fill="#189CD8"/><path d="M22.2 39.81a62.83 62.83 0 0 1-5.64-10.54 33.92 33.92 0 0 1-2.69-10.4L.79 38.62a3.93 3.93 0 0 0 .01 4.8l22.8 34.45a21.95 21.95 0 0 0 .74 1.13c.71.99 2.5 3 5.08 3h21L22.2 39.81Z" fill="#43BBC7"/><path d="m156.03 69.42 3.28-9.74h1.6l3.27 9.74h-1.36l-.89-2.72h-3.71l-.88 2.72h-1.31Zm5.54-3.83-1.5-4.59-1.5 4.6h3ZM168.9 69.6a4.7 4.7 0 0 1-1.75-.33c-.53-.21-1-.53-1.38-.95a4.38 4.38 0 0 1-.9-1.58 6.8 6.8 0 0 1-.32-2.18c0-.82.1-1.53.3-2.13.21-.6.52-1.13.91-1.58.39-.44.85-.77 1.38-1a4.42 4.42 0 0 1 1.78-.34 5.48 5.48 0 0 1 2.36.5c.22.1.44.2.65.32v1.56h-.1l-.44-.38a4.37 4.37 0 0 0-1.47-.77c-.29-.09-.63-.13-1-.13a2.79 2.79 0 0 0-2.16 1c-.27.34-.49.75-.64 1.26-.15.5-.23 1.06-.23 1.69 0 .67.08 1.24.25 1.72.16.48.38.89.65 1.22a2.67 2.67 0 0 0 2.12.97 3.74 3.74 0 0 0 1.89-.48 4.67 4.67 0 0 0 1.03-.78h.1v1.55l-.6.28a6.93 6.93 0 0 1-1.48.48c-.24.05-.56.07-.95.07ZM157.5 59.95l-2.71 3.12-1.41-3.36 4.12.24Z" fill="#949699"/></g><defs><clipPath id="a"><path fill="#fff" d="M0 0h172v82H0z"/></clipPath></defs></svg>