<svg width="327" height="453" fill="none" xmlns="http://www.w3.org/2000/svg">
  <g opacity=".1" fill="#243746">
    <path d="M272.008 179.356S141.768 23.476 205.314-58.56c63.546-82.038 53.355-68.247 53.355-68.247s21.876-31.37 58.371-31.37h225.052L272.008 179.356Z"/>
    <path d="M239.195 195.57c-23.815-29.542-44.165-60.892-60.771-93.625-15.558-29.371-25.338-60.605-28.972-92.523L8.647 185.128C3.663 190.534.696 197.022.108 203.799c-.587 6.776 1.23 13.547 5.231 19.484a34.04 34.04 0 0 0 3.415 4.406l245.434 306.164c3.788 4.846 4.855 6.168 4.962 6.256a55.711 55.711 0 0 0 3.041 3.745c7.683 8.812 26.945 26.744 54.689 26.744H543L239.195 195.57Z"/>
  </g>
</svg>
